<?xml version="1.0" standalone="no"?>
<!DOCTYPE svg PUBLIC "-//W3C//DTD SVG 20010904//EN"
 "http://www.w3.org/TR/2001/REC-SVG-20010904/DTD/svg10.dtd">
<svg version="1.0" xmlns="http://www.w3.org/2000/svg"
 width="300.000000pt" height="299.000000pt" viewBox="0 0 300.000000 299.000000"
 preserveAspectRatio="xMidYMid meet">

<g transform="translate(0.000000,299.000000) scale(0.100000,-0.100000)"
fill="#000000" stroke="none">
<path d="M1393 2975 c-188 -53 -313 -218 -313 -412 l0 -52 -46 44 c-91 89
-233 135 -355 116 -348 -56 -480 -474 -227 -722 l43 -42 -34 7 c-49 9 -156
-11 -220 -41 -71 -34 -159 -122 -194 -193 -54 -113 -54 -256 0 -370 35 -71
123 -159 194 -193 64 -30 171 -50 220 -41 l34 7 -43 -42 c-119 -117 -160 -277
-112 -434 59 -191 265 -319 462 -287 82 13 176 60 231 115 l44 44 6 -77 c12
-173 110 -313 264 -373 46 -18 79 -23 158 -23 92 -1 105 2 166 30 156 74 249
216 249 380 l0 67 55 -52 c207 -196 546 -132 668 127 30 63 32 74 32 177 0
103 -2 114 -32 177 -19 41 -53 89 -83 119 l-52 52 32 -7 c46 -9 156 11 218 39
69 32 152 112 191 184 134 251 -23 564 -306 612 -32 5 -75 7 -96 3 l-38 -6 51
51 c30 30 64 79 83 119 30 63 32 74 32 177 0 103 -2 114 -32 177 -122 259
-461 323 -668 127 l-55 -52 0 67 c0 220 -173 402 -393 412 -53 3 -100 -1 -134
-11z m186 -180 c148 -52 206 -221 123 -355 l-32 -51 0 -242 0 -242 174 174
c163 163 174 176 185 225 16 71 52 120 114 156 43 25 63 30 117 30 41 0 80 -7
105 -19 46 -20 101 -79 121 -127 18 -43 18 -135 0 -178 -32 -77 -122 -145
-191 -146 -25 0 -57 -27 -202 -172 -95 -95 -173 -176 -173 -180 0 -5 110 -8
244 -8 215 0 245 2 257 17 47 56 185 70 269 28 168 -85 168 -335 0 -420 -84
-42 -222 -28 -269 28 -12 15 -42 17 -257 17 -134 0 -244 -3 -244 -7 0 -4 78
-85 172 -180 147 -147 177 -173 203 -173 69 -1 159 -69 191 -146 18 -43 18
-135 0 -178 -20 -48 -75 -107 -121 -127 -25 -12 -64 -19 -105 -19 -116 0 -206
72 -231 186 -11 49 -22 62 -185 225 l-174 174 0 -242 0 -242 32 -51 c83 -134
25 -303 -123 -355 -79 -28 -165 -12 -229 42 -97 83 -115 213 -45 317 25 37 25
37 25 284 l0 247 -175 -175 c-133 -133 -175 -181 -175 -200 0 -68 -73 -166
-147 -197 -42 -17 -144 -17 -186 0 -137 58 -188 233 -104 358 32 48 96 90 148
96 41 5 55 16 217 177 94 94 172 174 172 178 0 5 -107 8 -239 8 -224 0 -240
-1 -264 -20 -93 -73 -239 -66 -321 16 -89 89 -89 249 0 338 82 82 228 89 321
16 24 -19 40 -20 264 -20 132 0 239 3 239 8 0 4 -78 84 -172 178 -162 161
-176 172 -217 177 -52 6 -116 48 -148 96 -84 125 -33 300 104 358 42 17 144
17 186 0 74 -31 147 -129 147 -197 0 -19 42 -67 175 -200 l175 -175 0 247 c0
247 0 247 -25 284 -128 189 60 435 274 359z"/>
</g>
</svg>
